<?xml version="1.0" encoding="UTF-8"?>
<svg xmlns="http://www.w3.org/2000/svg">
  <symbol id="A" viewBox="-60 0 1560 2048">
    <path fill="currentColor" d="M-50 656q0 -141 91 -274q147 -215 387.5 -215t360 133t119.5 326q0 288 -402 606q-24 19 -24 32q0 18 44 24q79 11 162 106.5t167 95.5q55 0 102 -51q102 -109 102 -257v-720q0 -36 -31.5 -36t-31.5 -26.5t27 -33.5q175 -45 357 -188q14 -11 28 -11q24 0 24 24 q0 16 -17 31q-130 111 -130 232v882q0 152 80 152q28 0 70 -42q14 -14 29 -14q26 0 26 26q0 13 -12 25l-118 120q-54 55 -118 55q-151 0 -173 -172q-5 -39 -23.5 -39t-47.5 30q-175 181 -321 181q-122 0 -224 -118.5t-172 -118.5q-32 0 -64 21q-14 9 -28 9q-24 0 -24 -25 q0 -16 19 -29q499 -322 499 -644q0 -162 -104 -278q-139 -156 -284 -156t-207 94q-51 77 -51 154q0 120 179 194q193 80 193 191q0 75 -115 190q-13 13 -25 13q-27 0 -27 -29q0 -12 14 -25q27 -24 27 -49q0 -57 -137 -115q-196 -83 -196 -281z"/>
  </symbol>
  <symbol id="B" viewBox="-129 0 1809 2048">
    <path fill="currentColor" d="M-119 607q0 -174 146.5 -307t370.5 -133q226 0 356 160q18 22 31 41.5t23 19.5t19 -18q102 -203 332 -203q227 0 316 307q21 73 55 73q12 0 24 -6.5t24 -6.5q25 0 25 26q0 17 -25 31l-246 133q-30 17 -30 29t38 19q83 16 146 66q126 100 126 294.5t-220 388.5 q-183 162 -441 162t-477 -207q-102 -96 -193 -96q-44 0 -86 22q-15 8 -29 8q-25 0 -25 -25q0 -17 26 -31q495 -268 495 -527q0 -181 -108.5 -316.5t-260 -135.5t-235 90t-83.5 196t68.5 193t186.5 87t181 -55q17 -15 30 -15q28 0 28 27q0 13 -17 28q-90 79 -244 79 t-240.5 -112t-86.5 -286zM548 1199.5q0 18.5 33 33.5q58 25 105 71q273 258 421 258t249 -84q76 -63 76 -177q0 -158 -132 -264q-167 -134 -265 -134q-34 0 -60 14q-17 9 -29 9q-26 0 -26 -26q0 -16 29 -32l330 -179q19 -10 19 -22t-19 -27q-49 -35 -69 -104 q-75 -263 -173.5 -263t-158.5 121q-22 44 -22 77.5t8 63.5q19 73 19 145q0 218 -309 479q-26 22 -26 40.5z"/>
  </symbol>
  <symbol id="C" viewBox="-10 0 1384 2048">
    <path fill="currentColor" d="M68 897q0 -307 149.5 -518.5t355.5 -211.5q158 0 233 132q8 14 17.5 14t18.5 -7l142 -116q28 -23 67 -23t109.5 57t102.5 57t44 -18q14 -20 27 -20q30 0 30 28q0 10 -11 24q-149 190 -228 190t-137 -51t-105 -51t-86 32q-69 58 -69 132q0 111 155 260q189 183 189 284 q0 134 -288 307q-20 12 -28 12q-27 0 -27 -27q0 -17 29 -35q72 -45 72 -113q0 -102 -162.5 -258.5t-162.5 -276.5t122 -219l129 -105q11 -9 11 -19t-6 -21q-52 -82 -143 -82q-154 0 -236 159t-82 326q0 317 183.5 552.5t494.5 235.5q168 0 282 -65q14 -8 22 -8q27 0 27 31 q0 13 -21 26q-277 172 -506 172q-334 0 -524 -239.5t-190 -546.5z"/>
  </symbol>
  <symbol id="D" viewBox="-120 0 1607 2048">
    <path fill="currentColor" d="M-110 750q0 -241 199 -412t492 -171q194 0 341 65q497 220 497 702q0 314 -200 516q-230 233 -469 233q-158 0 -318 -101.5t-264 -101.5q-68 0 -107 37q-17 17 -34 17q-25 0 -25 -25q0 -14 19 -32q191 -181 363 -181q109 0 191 54q224 147 371.5 147t232.5 -86 q106 -107 106 -270q0 -451 -472 -660q-151 -67 -336 -67q-206 0 -356.5 102t-150.5 281q0 123 89.5 212.5t215.5 89.5q56 0 99 -14q16 -5 27 -5q26 0 26 26q0 20 -33 31q-53 18 -119 18q-174 0 -279.5 -114t-105.5 -291zM362 726q0 -144 218 -257q13 -6 23 -6q26 0 26 28 q0 16 -23 28q-46 25 -46 68q0 73 141 204.5t141 252.5q0 144 -218 257q-13 6 -23 6q-26 0 -26 -28q0 -16 23 -28q46 -25 46 -68q0 -70 -141 -204.5t-141 -252.5z"/>
  </symbol>
  <symbol id="E" viewBox="-10 0 1428 2048">
    <path fill="currentColor" d="M68 897q0 -307 149.5 -518.5t355.5 -211.5q158 0 233 132q8 14 17.5 14t18.5 -7l142 -116q28 -23 67 -23t109.5 57t102.5 57t45 -19t26 -19q30 0 30 28q0 10 -11 24q-157 200 -224.5 200t-135 -56t-112.5 -56t-84 32q-69 58 -69 132q0 105 165 270q9 9 17.5 9t16.5 -13 q100 -172 193 -172q52 0 98 45q56 54 85 54q11 0 17 -9q14 -23 28 -23q28 0 28 29q0 7 -8 22q-97 189 -216 189q-54 0 -120 -64q-34 -33 -49 -33q-23 0 -23 28q0 6 10 19q102 120 102 193q0 134 -288 307q-20 12 -28 12q-27 0 -27 -27q0 -17 29 -35q72 -45 72 -113 q0 -102 -162.5 -258.5t-162.5 -276.5t122 -219l129 -105q12 -10 12 -20t-7 -20q-57 -82 -143 -82q-154 0 -236 159t-82 326q0 317 183.5 552.5t494.5 235.5q168 0 282 -65q14 -8 22 -8q27 0 27 31q0 13 -21 26q-277 172 -506 172q-334 0 -524 -239.5t-190 -546.5z"/>
  </symbol>
  <symbol id="F" viewBox="-67 0 1475 2048">
    <path fill="currentColor" d="M-57 721q0 -215 173.5 -384.5t471.5 -169.5q165 0 446 132q148 70 227 70q33 0 52.5 -12t33.5 -12q24 0 24 26q0 17 -23 30q-195 110 -289 204q-9 9 -21.5 9t-23.5 -8q-310 -216 -600 -216q-174 0 -276.5 118t-102.5 253.5t87.5 233.5t211.5 98t180 -32q12 -7 20 -7 q30 0 30 27q0 12 -20 26q-72 48 -217.5 48t-264.5 -109.5t-119 -324.5zM79 1263q0 -26 27 -26q68 0 148 25q162 51 162 184q0 49 -26 119t-26 131q0 73 43 118q60 62 152 62q166 0 254 -109q63 -80 63 -218q0 -200 -228 -475q-110 -133 -110 -253q0 -167 201 -300 q17 -11 29 -11q23 0 23 27q0 14 -20 30q-42 33 -42 86q0 98 144 266q28 33 65 82q9 11 17.5 11t17.5 -11l180 -219q10 -12 20 -12t19 8l166 142q9 8 9 17t-8 19l-136 166q-10 12 -20 12t-18 -7l-123 -105q-8 -7 -18 -7t-18 10l-20 25q-11 13 -11 25t6 22q104 173 104 346 q0 186 -91 310q-132 179 -455 179q-231 0 -355 -122q-88 -87 -88 -213q0 -71 23 -140t23 -103q0 -57 -49 -62q-34 -3 -34 -29z"/>
  </symbol>
  <symbol id="G" viewBox="-10 0 1586 2048">
    <path fill="currentColor" d="M68 939q0 -340 169.5 -556t400.5 -216q160 0 238 139q9 16 19 16t20 -6l235 -137q21 -12 37 -12q27 0 43 32q31 62 79 122.5t134 100.5q28 13 28 31t-20 33l-209 150q-18 13 -18 23.5t29 16.5q88 16 171.5 131t83.5 294q0 382 -428 541q-54 20 -123.5 30.5t-171.5 10.5 q-527 0 -679 -479q-38 -120 -38 -265zM329 837q0 174 42 305q154 481 491 481q44 0 90.5 -6.5t99.5 -26.5q233 -88 233 -359q0 -154 -97 -288t-166 -134q-21 0 -38.5 12.5t-29.5 12.5q-26 0 -26 -26q0 -16 21 -31l247 -177q13 -9 13 -20t-17 -19q-66 -34 -113 -93.5 t-65 -111.5q-5 -16 -17 -16t-20 5l-131 76q-114 66 -114 165q0 107 136 254t136 275q0 176 -278 322q-17 9 -31 9q-25 0 -25 -27q0 -17 28 -31q92 -46 92 -130q0 -103 -135 -248.5t-135 -268.5q0 -198 299 -369q14 -8 14 -18t-5 -19q-52 -94 -158 -94q-151 0 -246 136 t-95 460z"/>
  </symbol>
  <symbol id="H" viewBox="-147 0 1516 2048">
    <path fill="currentColor" d="M-137 1467q0 -16 18 -34q123 -122 225 -122t192 92t155 92q38 0 64 -26t26 -65q0 -126 -258 -394q-137 -142 -137 -310.5t181 -350.5t301 -182t207 89.5t127 89.5q18 0 30 -12t28 -12q24 0 24 24q0 16 -15 31q-123 123 -229 123t-187 -83t-136.5 -83t-108.5 54t-53 132 q0 134 189 327q10 10 22 10t24 -9l376 -269q17 -12 35 -12t37 20q301 317 301 594q0 513 -696 699q-15 4 -26 4q-29 0 -29 -26q0 -22 40 -32q471 -117 471 -541q0 -254 -255 -509q-13 -13 -26 -13t-27 10l-169 121q-13 9 -13 19t8 21q115 144 115 296q0 141 -132 273 q-155 155 -274.5 155t-211.5 -95t-134 -95q-16 0 -27.5 11.5t-26.5 11.5q-25 0 -25 -24z"/>
  </symbol>
  <symbol id="I" viewBox="-28 0 1226 2048">
    <path fill="currentColor" d="M-18 1393q0 -13 17 -28q145 -125 256 -125t232 169t231 169t186 -73q50 -48 50 -113q0 -112 -148 -274q-101 -111 -101 -236.5t142 -274.5q15 -16 15 -28t-32 -12q-127 0 -217 -109t-212.5 -109t-199.5 85.5t-77 187t60.5 178t166 76.5t163.5 -42q16 -12 29 -12 q26 0 26 26q0 15 -22 32q-78 59 -215 59t-221.5 -94.5t-84.5 -266t144 -291.5t349 -120t317 134.5t193 134.5q28 0 52 -16q15 -10 25 -10q28 0 28 31q0 12 -21 25q-194 120 -194 268q0 105 105.5 219.5t105.5 240.5q0 169 -186 350q-145 139 -370.5 139t-330 -147 t-164.5 -147q-24 0 -40.5 15t-30.5 15q-26 0 -26 -26z"/>
  </symbol>
  <symbol id="J" viewBox="-68 0 1343 2048">
    <path fill="currentColor" d="M-58 1637q0 -11 16 -25q150 -131 259.5 -131t260 161.5t290.5 161.5t204 -60.5t64 -154.5q0 -154 -193 -401q-96 -123 -96 -272.5t165 -297.5q19 -17 19 -29.5t-39 -12.5q-121 0 -230.5 -103t-236.5 -103t-226 86.5t-99 227.5t91 237t210.5 96t181.5 -55q17 -15 30 -15 q28 0 28 27q0 13 -17 28q-91 80 -251.5 80t-268.5 -117.5t-108 -315t156 -340t368 -142.5t358 135.5t233 135.5q32 0 53 -14q12 -8 26 -8q26 0 26 28q0 14 -20 26q-224 139 -224 291t125.5 310t125.5 318q0 207 -220 402q-159 141 -391.5 141t-372 -147t-203.5 -147 q-22 0 -38 14t-27 14q-29 0 -29 -29z"/>
  </symbol>
  <symbol id="K" viewBox="-122 0 1627 2048">
    <path fill="currentColor" d="M-112 1483q0 -15 16 -28q144 -118 247 -118q74 0 146.5 82t139.5 82q29 0 52 -19t23 -54q0 -104 -169.5 -325.5t-169.5 -414.5t202.5 -357t464.5 -164t440 159.5t178 368.5t-242 350q-12 7 -25 7q-25 0 -25 -26q0 -17 23 -30q157 -90 157 -301t-159.5 -341.5 t-346.5 -130.5t-314.5 99t-127.5 253q0 64 25 133q17 46 30.5 46t23.5 -47q63 -296 321 -296q251 0 364 278q23 56 50 56q9 0 20.5 -7t25.5 -7q24 0 24 25q0 17 -24 32l-238 146q-22 13 -22 25q0 13 26 23q32 12 59 48q45 60 90 202.5t95.5 198.5t87.5 56q17 0 30.5 -9.5 t25.5 -9.5q25 0 25 28q0 14 -17 26l-152 104q-47 32 -91 32q-70 0 -134.5 -70.5t-112.5 -221.5t-92 -209q-45 -58 -78 -58q-9 0 -20 6.5t-22 6.5q-26 0 -26 -27q0 -16 20 -28l266 -163q21 -13 21 -25.5t-25 -23.5q-51 -23 -79 -91q-82 -200 -203 -200q-128 0 -160 164 q-6 31 -6 63q0 104 70 212q83 126 83 265t-157.5 269.5t-278.5 130.5q-96 0 -170.5 -83.5t-113.5 -83.5q-11 0 -22 9t-24 9q-25 0 -25 -26z"/>
  </symbol>
  <symbol id="L" viewBox="-42 0 1137 2048">
    <path fill="currentColor" d="M-32 1433q0 -17 20 -32q135 -106 201.5 -176t66.5 -135.5t-110 -208t-110 -296.5t151 -286t354 -132t346 109t143 272t-107 250t-237 87q-91 0 -137 -27q-19 -11 -19 -24q0 -30 24 -30q13 0 24 6q26 15 86 15t118 -66t58 -211.5t-85 -235t-214.5 -89.5t-198.5 82t-69 191 t98.5 233t98.5 225.5t-144 233.5q-24 22 -24 37.5t30 23.5q53 14 97 54q216 196 350 196t230 -121q15 -19 31 -19q25 0 25 24q0 15 -11 29q-206 271 -408.5 271t-407.5 -187q-81 -74 -133.5 -74t-83.5 25q-14 11 -28 11q-25 0 -25 -25z" />
  </symbol>
  <symbol id="M" viewBox="-67 0 2176 2048">
    <path fill="currentColor" d="M-57 621q0 -186 128 -320t341.5 -134t344.5 154q10 12 19 12t19 -12q129 -154 288.5 -154t261.5 139q14 19 26 19t23 -20q76 -138 255 -138q228 0 296 284q38 159 82 159q7 0 15.5 -5t16.5 -5q26 0 26 30q0 14 -19 25q-304 176 -304 427q0 141 58.5 243.5t115.5 102.5 q24 0 37.5 -13t23.5 -13q27 0 27 29q0 13 -12 24l-190 181q-23 22 -46 22t-50 -19q-173 -122 -173 -397t258 -487q17 -14 17 -28t-26 -26q-86 -39 -123 -194q-53 -224 -160 -224q-51 0 -76 49q-20 39 -20 85q0 33 11 71q28 99 28 219q0 386 -233 730q-149 221 -259 221 q-52 0 -101.5 -56t-81.5 -56q-23 0 -34.5 20.5t-26.5 20.5q-29 0 -29 -26q0 -11 6 -21q122 -204 228 -204q65 0 114 55.5t80 55.5t57 -40q85 -131 85 -422q0 -294 -140 -518q-90 -144 -199 -144q-61 0 -93 37q-14 16 -14 30.5t9 29.5q94 157 94 411q0 312 -264 643 q-147 184 -251 184t-181 -120q-57 -88 -99 -88q-18 0 -31 16t-27 16q-27 0 -27 -26q0 -13 11 -27q124 -158 224 -158t177 120q56 87 98 87q30 0 61 -37q133 -160 133 -435t-189 -499q-121 -144 -268.5 -144t-219.5 69t-72 189q0 192 173 192q35 0 77 -8t77 -8q197 0 197 246 q0 37 -28 37t-28 -37q0 -61 -93 -61q-36 0 -85 9t-88 9q-258 0 -258 -379z" />
  </symbol>
  <symbol id="N" viewBox="-67 0 1707 2048">
    <path fill="currentColor" d="M-57 621q0 -186 127 -320t349 -134t380 206q20 26 36 26t33 -26q135 -206 285 -206q255 0 323 284q38 159 82 159q7 0 15.5 -5t16.5 -5q26 0 26 30q0 14 -19 25q-304 176 -304 427q0 141 58.5 243.5t115.5 102.5q24 0 37.5 -13t23.5 -13q27 0 27 29q0 13 -12 24l-190 181 q-23 22 -46 22t-50 -19q-173 -122 -173 -397t258 -487q17 -14 17 -28t-26 -26q-87 -40 -123 -194q-45 -190 -143 -190t-152 86q-30 49 -30 95t10 83q29 105 29 250q0 312 -264 643q-147 184 -251 184t-181 -120q-57 -88 -99 -88q-18 0 -31 16t-27 16q-27 0 -27 -26 q0 -13 11 -27q128 -158 226.5 -158t174.5 120q56 87 98 87q30 0 61 -37q133 -160 133 -435t-189 -499q-121 -144 -268.5 -144t-219.5 69t-72 189q0 192 173 192q35 0 77 -8t77 -8q197 0 197 246q0 37 -28 37t-28 -37q0 -61 -93 -61q-36 0 -85 9t-88 9q-258 0 -258 -379z" />
  </symbol>
  <symbol id="O" viewBox="-10 0 1507 2048">
    <path fill="currentColor" d="M17 1435q0 -14 16 -29q143 -133 266.5 -133t230.5 93q214 185 372 185q161 0 266.5 -99.5t105.5 -309.5q0 -471 -441 -663q-149 -65 -263 -65q-71 0 -138 31q-171 83 -171 224q0 95 167 160q226 89 226 223q0 91 -112 210q-15 16 -32 16q-27 0 -27 -24q0 -13 11.5 -25.5 t11.5 -24.5q0 -54 -190 -127q-265 -102 -265 -310.5t355 -371.5q162 -74 246 -195q23 -33 54 -33q89 0 249 69q474 206 474 725q0 322 -237 546q-185 176 -476 176q-226 0 -379.5 -125t-225.5 -125q-24 0 -38.5 13t-28.5 13q-27 0 -27 -24z" />
  </symbol>
  <symbol id="P" viewBox="-201 0 1803 2048">
    <path fill="currentColor" d="M-191 622.5q0 -148.5 71 -257.5q130 -198 403 -198t396 245q8 16 18 16t17 -4l433 -252q9 -5 19 -5t17 10t7 21t-19.5 29.5t-19.5 42.5q0 90 104 190q279 268 279 540q0 207 -161 417q-204 266 -403 266q-111 0 -215 -41q-8 -3 -14 -3q-13 0 -19 19q-61 228 -194 369 q-17 18 -31 18q-26 0 -26 -25q0 -13 16 -31q102 -109 102 -405q0 -28 -23 -45q-84 -59 -181 -59q-69 0 -107 46q-15 18 -29 18q-27 0 -27 -24q0 -15 12 -29q166 -218 319 -218q27 0 27 -29q0 -429 -150 -722q-87 -169 -226.5 -169t-223 74t-83.5 197.5t75.5 208t187 84.5 t164.5 -29q11 -6 24 -6q24 0 24 26q0 17 -22 29q-86 46 -218 46t-227.5 -106t-95.5 -254.5zM716 503q0 6 2 13q55 181 55 727q-2 41 -2 79q0 29 23 45q199 130 316 130q134 0 219 -114q62 -83 62 -183q0 -234 -340 -559q-116 -111 -149 -230q-5 -18 -14 -18t-18 5l-135 79 q-19 11 -19 26z" />
  </symbol>
  <symbol id="Q" viewBox="-10 0 1544 2048">
    <path fill="currentColor" d="M17 1435q0 -14 16 -29q143 -133 266.5 -133t230.5 93q214 185 372 185q76 0 139 -22q16 -5 16 -14.5t-9 -19.5q-64 -68 -114 -68q-34 0 -53 23t-35 23q-25 0 -25 -24q0 -14 12 -28q115 -142 225 -142q89 0 150 68q9 10 17.5 10t15.5 -15q33 -82 33 -200q0 -471 -441 -663 q-149 -65 -263 -65q-74 0 -138 31q-171 83 -171 224q0 95 167 160q226 89 226 223q0 91 -112 210q-15 16 -32 16q-27 0 -27 -24q0 -13 11.5 -25.5t11.5 -24.5q0 -54 -190 -127q-265 -102 -265 -310.5t355 -371.5q162 -74 246 -195q23 -33 54 -33q89 0 249 69 q474 206 474 725q0 246 -140 437q-8 11 -8 22t10 21q66 69 115 69q34 0 53 -23.5t35 -23.5q25 0 25 24q0 14 -12 29q-115 142 -225 142q-78 0 -148 -67q-12 -12 -22.5 -12t-20.5 6q-157 98 -379 98t-375.5 -125t-225.5 -125q-24 0 -38.5 13t-28.5 13q-27 0 -27 -24z" />
  </symbol>
  <symbol id="R" viewBox="-76 0 1746 2048">
    <path fill="currentColor" d="M-66 606q0 -175 142 -307t358 -132t375 206q17 23 34 23t32 -30q100 -199 294 -199q241 0 314 341q12 56 35 56q7 0 16 -6t22 -6q25 0 25 26q0 16 -21 30l-288 193q-13 9 -13 20q0 10 22 23q36 22 59 66q43 84 71.5 272.5t69.5 247t84 58.5q16 0 30.5 -10t26.5 -10 q25 0 25 28q0 14 -17 26l-152 104q-47 32 -89 32q-79 0 -144 -93t-95 -291.5t-59 -254.5t-51 -56q-10 0 -19 6t-22 6q-26 0 -26 -26q0 -15 22 -30l296 -198q17 -11 17 -22.5t-21 -22.5q-51 -27 -73 -126q-60 -272 -153 -272q-79 0 -136 113q-26 50 -26 113q0 39 10 81 q25 105 25 246q0 313 -264 643q-147 184 -251 184t-181 -120q-57 -88 -99 -88q-18 0 -31 16t-27 16q-27 0 -27 -26q0 -13 11 -27q125 -158 225 -158t176 120q56 87 98 87q30 0 61 -37q133 -160 133 -435t-189 -499q-108 -128 -247.5 -128t-214.5 88t-75 195t68 193t187 86 t181 -55q17 -15 30 -15q28 0 28 27q0 13 -17 28q-90 79 -244.5 79t-242.5 -112t-88 -287z" />
  </symbol>
  <symbol id="S" viewBox="-10 0 1601 2048">
    <path fill="currentColor" d="M68 1006.5q0 -310.5 277 -562.5q306 -277 501 -277q97 0 217 82t213.5 82t139.5 -47q21 -21 38 -21q22 0 22 22q0 16 -20 38q-182 202 -325 202t-253.5 -75t-242.5 -75t-257 114t-125 371t207.5 427t461 170t400 -112t146.5 -238.5t-70 -179.5t-149.5 -53t-207 109 t-268.5 109t-301 -209q-13 -17 -13 -29q0 -26 25 -26q15 0 32 21q44 54 122.5 54t205.5 -108t278.5 -108t276 107t124.5 312.5t-212.5 391t-503.5 185.5t-515 -183t-224 -493.5z" />
  </symbol>
  <symbol id="T" viewBox="-62 0 1451 2048">
    <path fill="currentColor" d="M-52 628.5q0 -180.5 163 -321t434.5 -140.5t550.5 237q97 82 162 82q38 0 63 -29q16 -18 31 -18q27 0 27 25q0 13 -13 27q-163 176 -292 176q-87 0 -165 -66q-297 -252 -498 -252q-195 0 -283.5 89t-88.5 209.5t68.5 194.5t149 74t125.5 -26q12 -7 25 -7q27 0 27 27 q0 16 -20 27q-80 46 -186.5 46t-193 -87t-86.5 -267.5zM14 1313q0 -14 15 -31q135 -154 250 -154t224 119q289 318 502 318q123 0 218 -108q16 -18 30 -18q26 0 26 27q0 13 -12 27q-163 190 -449 190t-539 -278q-99 -109 -160 -109q-28 0 -46 20.5t-33 20.5q-26 0 -26 -24z M467 784q0 -156 218 -257q13 -6 23 -6q26 0 26 28q0 16 -23 28q-46 25 -46 68q0 73 141 204.5t141 252.5q0 156 -218 257q-13 6 -23 6q-26 0 -26 -28q0 -16 23 -28q46 -25 46 -68q0 -70 -141 -204.5t-141 -252.5z" />
  </symbol>
  <symbol id="U" viewBox="-48 0 1345 2048">
    <path fill="currentColor" d="M-38 1426q0 -16 18 -28q284 -190 284 -379q0 -110 -109.5 -235.5t-109.5 -267.5t117.5 -245.5t235 -103.5t169 48.5t51.5 108t-26 93.5t-44 34q-24 0 -24 -26q0 -13 17 -32t17 -55t-33.5 -65t-98 -29t-111 43.5t-46.5 129t108 209.5t108 242q0 173 -203 367 q-21 20 -21 35t50 15q79 0 167 102.5t174 102.5q55 0 102 -51q102 -109 102 -257v-720q0 -36 -31.5 -36t-31.5 -26.5t27 -33.5q175 -45 357 -188q14 -11 28 -11q24 0 24 24q0 16 -17 31q-130 115 -130 232v882q0 152 80 152q28 0 70 -42q14 -14 29 -14q26 0 26 26 q0 13 -12 25l-118 120q-54 55 -118 55q-151 0 -173 -172q-5 -39 -23.5 -39t-47.5 30q-175 181 -321 181q-122 0 -224 -118.5t-172 -118.5q-32 0 -64 21q-14 9 -28 9q-24 0 -24 -25z" />
  </symbol>
  <symbol id="V" viewBox="-99 0 1690 2048">
    <path fill="currentColor" d="M-89 606.5q0 -174.5 145 -307t348 -132.5t368 180q24 26 43.5 26t34.5 -27q99 -179 273 -179t242 203q46 138 96 138q11 0 22.5 -7.5t21.5 -7.5q27 0 27 29q0 14 -20 27q-211 134 -211 239t111 202t111 236t-207 324q-148 133 -399 133t-421.5 -169.5t-243.5 -169.5 t-119 40q-16 14 -27 14q-29 0 -29 -29q0 -11 16 -25q197 -172 318 -172q30 0 49.5 5.5t29.5 5.5q23 0 43 -18q134 -119 134 -324.5t-116.5 -333.5t-247.5 -128t-214.5 88t-83.5 194.5t68.5 193t187 86.5t180.5 -55q17 -15 30 -15q28 0 28 27q0 13 -17 28q-90 79 -244 79 t-240.5 -112t-86.5 -286.5zM569 1217.5q0 8.5 12 17.5q63 43 128 107q230 229 394 229q110 0 180 -66q48 -45 48 -135.5t-118 -194.5t-118 -236t165 -276q16 -14 16 -25t-24 -18q-98 -28 -147 -174q-45 -134 -106.5 -134t-105 72t-43.5 138q0 16 2 30q14 78 14 149 q0 246 -288 500q-9 8 -9 16.5z" />
  </symbol>
  <symbol id="W" viewBox="-99 0 2238 2048">
    <path fill="currentColor" d="M-89 619.5q0 -176.5 145 -314.5t349 -138t342 152q11 12 19 12t16 -14q79 -150 178 -150q102 0 184 154q8 15 17.5 15t20.5 -11q25 -26 53 -50q121 -108 286 -108q298 0 389 254q29 81 70 81q12 0 25.5 -7.5t25.5 -7.5q25 0 25 28q0 15 -24 29q-184 107 -184 230 q0 90 111.5 190t111.5 224q0 150 -162.5 322.5t-340.5 172.5q-148 0 -302 -126q-39 -32 -78.5 -32t-79.5 30q-171 128 -308 128q-180 0 -309 -174.5t-238 -174.5q-63 0 -121 51q-14 12 -28 12q-26 0 -26 -26q0 -15 17 -29q193 -159 341 -159q77 0 104 -25q127 -119 127 -317 q0 -206 -116.5 -334t-247.5 -128t-214.5 88t-83.5 198.5t68 193t187 82.5t181 -55q17 -15 30 -15q28 0 28 27q0 13 -17 28q-90 79 -244 79t-240.5 -104.5t-86.5 -281zM583 1210.5q0 13.5 19 26.5q53 36 111 114q126 169 262 169q93 0 178.5 -76.5t85.5 -180.5 q0 -135 -136 -326q-94 -132 -94 -261q0 -127 90 -253q11 -15 11 -29t-8 -27q-46 -71 -142 -71q-92 0 -140 74q-9 15 -9 31.5t8 34.5q47 111 47 267q0 233 -269 481q-14 13 -14 26.5zM1205 480q0 130 129 312q95 133 95 267q0 106 -63 219q-5 9 -5 17q0 16 22 23q35 11 68 39 q205 167 306 167q60 0 103.5 -44.5t43.5 -99.5q0 -100 -137.5 -223.5t-137.5 -248.5q0 -116 139 -246q15 -13 15 -24.5t-28 -18.5q-69 -19 -100 -104q-96 -263 -229 -263q-82 0 -151.5 64t-69.5 164z" />
  </symbol>
  <symbol id="X" viewBox="-91 0 1374 2048">
    <path fill="currentColor" d="M-81 567.5q0 -184.5 123 -292.5t297 -108q218 0 332 126q53 59 73 139q9 37 25 37q14 0 42 -62q108 -240 221 -240q58 0 111 62q18 21 38 21t36 -37q10 -23 28 -23q28 0 28 25q0 9 -6 23q-100 234 -216 234q-59 0 -112 -64q-18 -22 -37 -22t-38 40q-77 162 -77 294 q0 29 28 29h272q22 0 22 10q0 7 -9 18l-110 134q-23 28 -59 28h-112q-25 0 -25 31q0 237 137 387q90 98 157 98q41 0 75 -33q14 -14 29 -14q25 0 25 27q0 13 -15 27l-143 138q-60 58 -128 58q-92 0 -192 -109q-79 -87 -126 -228q-13 -39 -26.5 -39t-28.5 40q-23 60 -54 118 q-116 218 -235 218q-64 0 -131 -65q-49 -48 -79 -48t-46 31q-10 20 -28 20q-28 0 -28 -24q0 -11 4 -18q119 -220 234 -220q65 0 133 65q48 47 78.5 47t47.5 -32q112 -213 112 -447q0 -28 -28 -28h-91q-22 0 -22 -10q0 -7 9 -18l101 -123q19 -23 19 -53q0 -8 -1 -15 q-26 -181 -83 -244q-97 -107 -212.5 -107t-177.5 70t-62 184.5t61.5 185t140 70.5t125.5 -25q13 -7 24 -7q26 0 26 27q0 15 -21 28q-60 37 -176.5 37t-197.5 -93.5t-81 -278z" />
  </symbol>
  <symbol id="Y" viewBox="-144 0 1686 2048">
    <path fill="currentColor" d="M-134 606.5q0 -174.5 142 -307t356.5 -132.5t376.5 206q11 14 21.5 14t19.5 -15q123 -205 310 -205q224 0 298 283q37 142 84 142q7 0 16 -4t18 -4q24 0 24 30q0 16 -22 26q-248 113 -248 274q0 80 61 171q110 164 110 340.5t-193.5 366t-521.5 189.5t-527 -239 q-15 -18 -15 -29q0 -23 28 -28q11 -2 27 18q163 204 425.5 204t395 -130t132.5 -270t-105 -299q-58 -87 -58 -171q0 -162 228 -319q16 -11 16 -22.5t-24 -23.5q-85 -42 -117 -166q-50 -191 -167 -191q-74 0 -127 86q-21 34 -21 67q0 19 7 38q30 80 30 165q0 265 -314 620 q-15 17 -15 29q0 20 40.5 29.5t91.5 59.5q61 59 101 59q33 0 49 -24t32 -24q26 0 26 25q0 12 -9 26q-120 187 -251 187q-82 0 -154.5 -70.5t-114.5 -70.5q-29 0 -46.5 15.5t-31.5 15.5q-25 0 -25 -25q0 -16 18 -32q392 -348 392 -647q0 -172 -128 -329q-111 -136 -252 -136 t-216 88t-75 194.5t68.5 193t187 86.5t180.5 -55q17 -15 30 -15q28 0 28 27q0 13 -17 28q-90 79 -244 79t-242.5 -112t-88.5 -286.5z" />
  </symbol>
  <symbol id="Z" viewBox="-138 0 1343 2048">
    <path fill="currentColor" d="M-128 1637q0 -11 16 -25q145 -131 257 -131t264 161t279 161q96 0 148 -35q107 -74 107 -261q0 -149 -137 -296t-293 -147q-63 0 -123 20q-9 3 -16 3q-29 0 -29 -30q0 -17 25 -26q471 -155 471 -374q0 -75 -54 -139q-116 -135 -291.5 -135t-254 77t-78.5 162t46 146.5 t133 61.5q37 0 37 28t-38 28q-127 0 -204 -73t-77 -221.5t142 -286.5t392 -138t381 153q86 100 86 242q0 184 -228 331q-14 9 -14 16.5t18 12.5q93 26 196.5 136.5t103.5 322.5q0 246 -270 432q-173 119 -346 119q-212 0 -350 -147t-205 -147q-22 0 -37.5 14t-27.5 14 q-29 0 -29 -29z" />
  </symbol>
</svg>
