<svg xmlns="http://www.w3.org/2000/svg" width="460" height="534" viewBox="0 0 460 534">
  <g transform="rotate(17) scale(-1,1) translate(-550,-130)">
    <g transform="scale(-1 1) rotate(17 -250 -753)">
      <path fill="rgb(178,139,103)" d="M98.2 45.9c5.7 10.8 5.1 38.1-2.3 40.1-2.9.7-9.3-1.1-15.8-5.0l4.0 28.7h-24l8.2-38.5c-4.6-5.4-7.7-12.0-7.2-19.4 1.5-21.4 31.2-16.6 37.0-5.8z"/>
      <path fill="rgb(25,24,71)" d="M65.3 76.3C62.0 61.8 52.7 51.9 54.1 45.3c1.4-6.5 7.5-8.0 7.5-8.0S64.9 24.4 82.2 26.3c17.2 1.9 27.8 9.1 23.2 25.0-4.1 0-9.2-1.5-16.2 1.0-3.3 1.2-4.7 7.7-4.7 7.7h-3.1s-4.6-7.6-9.0-5.6c-4.4 2.0-2.0 9.8-2.0 9.8l-1.5 12.0h-3.3z"/>
    </g>
    <g transform="matrix(-1 0 0 1 401 235)">
      <path fill="rgb(153,118,89)" d="M140.8 0l80.4 134.6 60.3 113.8h12.9L193.5 0h-52.7z"/>
      <path fill="rgb(228,228,228)" d="M276.5 241.9c-1.0-.5-2.3-.0-2.7 1.0 0 0-1.8 4.5-1.8 7.4 0 2.9.9 8.5.9 8.5h61.1s2.3-7.8-2.7-8.5c-5.1-.6-8.5-1.1-8.5-1.1l-28.4-12.6c-.5-.2-1.1.0-1.3.5l-1.8 4.5s-4.7 2.2-7.7 2.2c-2.9 0-6.7-1.9-6.7-1.9z"/>
      <path fill="rgb(219,39,33)" d="M264.9 230.2l25.0-7.5s-16.4-49.2-40.3-108.4C225.6 55.0 198.2 0 198.2 0h-70.8s30.5 69.6 64.6 126.4c34.1 56.8 72.7 103.7 72.7 103.7z"/>
      <path fill="rgb(178,139,103)" d="M135.5 0c-7.5 47.3-22.2 107.7-23.6 109.6-.9 1.2-34.1 12.3-99.5 33.3l2.8 11.4c78.0-11.2 119.1-20.0 123.3-26.2C144.8 118.9 176.3 45.2 188.5 0h-52.9z"/>
      <path fill="rgb(255,65,51)" d="M35.3 133.0l4.9 18.4c58.3 5.1 94.1 1.4 107.3-11.1C160.7 127.9 175.7 81.1 192.6 0H125.1c-10.6 66.4-16.6 101.0-17.8 103.8-1.2 2.7-25.2 12.5-71.8 29.2z"/>
      <path fill="rgb(228,228,228)" d="M17.2 140.7c.3-1.1-.3-2.2-1.4-2.5 0 0-4.7-1.0-7.6-.5-2.8.5-8.2 2.4-8.2 2.4l10.6 60.1s8.1.9 7.8-4.1c-.2-5.1-.3-8.5-.3-8.5l7.5-30.2c.1-.5-.2-1.0-.7-1.2l-4.7-1.0s-3.0-4.2-3.5-7.2c-.5-2.9.7-7.0.7-7.0z"/>
    </g>
    <g transform="scale(-1 1) rotate(21.0 -411 -810)">
      <path fill="rgb(153,118,89)" d="M202.5 72.8l39.4-5.3q11.8-6.5 21.7-8.9c1.8-.0 4.8.6.4 4.3s-8.9 7.7-8.1 9.7c.7 1.9 4.9 1.2 5.5 4.2.4 2.0-6.2 2.3-20.0.9L209.5 90.5l-7.0-17.6zm-171.9 108.3c7.3-5.0 17.9-13.8 19.3-16.7 2.9-5.9 28.5-82.4 28.5-82.4l21.8.0s-36.0 81.0-37.5 84.8c-2.0 4.9 1.4 12.1 3.7 17.0.3.7.6 1.4.9 2.0-3.2 1.4-4.7-.2-6.3-2.1-1.8-2.0-3.7-4.2-8.3-2.1-1.7.8-3.4 1.7-5.0 2.7-5.6 3.2-10.8 6.2-17.8 1.9-1.1-.6-2.3-3.2.6-5.3z"/>
      <path fill="rgb(175,185,197)" d="M138.4 5.3l18.5 1.2c4.5 41.2 29.4 67.3 85.1 58.5l7.4 53.1c-52.0 6.7-97.7-14.1-107.1-70.4-2.4-14.5-4.3-29.7-4.0-42.4z"/>
      <path fill="rgb(197,207,214)" d="M52.9 154.5q17.8-95.0 75.3-147h1.7l.0.0 25.9 5.9C155.9 58.1 170.2 86.6 177.5 119.5h-70.1c-.9 11.3-1.5 23.0-1.9 35h-52.5z"/>
      <path fill="rgb(0,0,0)" fill-opacity=".1" d="M107.3 119.5c2.0-23.1 5.6-44.9 11.5-65.4-1.3 21.9-1.6 49.0 2.7 65.4h-14.2z"/>
    </g>
  </g>
</svg>
