<svg xmlns="http://www.w3.org/2000/svg" width="388.1" height="482.5" viewBox="0 0 388.1 482.5">
  <g transform="scale(-1,1) translate(-408,50) rotate(-10)">
    <g transform="translate(82)">
      <path fill="rgb(25,24,71)" d="M61 77.7c11.4 0 15.5-13.6 22.0-21.1C87.7 51.1 95.6 52.7 98 45.2 103.9 26.3 88.1 13 67.5 13S33 24.6 30 42.2C27 59.7 40.3 77.7 61 77.7z"/>
      <path fill="rgb(178,139,103)" d="M92.1 40.1c5.7 10.8 5.1 38.1-2.3 40.1-2.9.7-9.3-1.1-15.8-5.0L78 104H54l8.2-38.5c-4.6-5.4-7.7-12.0-7.2-19.4 1.5-21.4 31.2-16.6 37.0-5.8z"/>
      <path fill="rgb(25,24,71)" d="M56.6 31c-18.3 18 .0 37.1 5.1 37.1.3-2.5 1.3-5.1 2.7-7.5-.7-1.0-1.2-2.2-1.2-3.6C63.2 53.6 66.0 51 69.4 51c1.0 0 2.0.2 2.9.7 7.3-6.2 16.6-10.6 21.2-11.5C101.5 38.6 75 13.0 56.6 31z"/>
    </g>
    <g transform="translate(0 187)">
      <path fill="rgb(153,118,89)" d="M128 0l37.6 123.0 18.2 104.6h14.2L178.8 0H128z"/>
      <path fill="rgb(178,139,103)" d="M114.5 0c2.5 67.5-.4 102.3-1.0 108.5-.5 6.1-8.4 45.9-26.9 121.1l15.2-5.2c29.3-69.0 39.2-104.8 42.6-113.9C147.8 101.4 156.7 64.6 171.2 0h-56.6z"/>
      <path fill="rgb(228,228,228)" d="M89.4 223.3c-1.0-.5-2.3-.0-2.7 1.0 0 0-1.6 4.0-1.6 6.7C85 233.8 85.9 239 85.9 239h56.4s2.1-7.2-2.5-7.8c-4.7-.5-7.8-1.0-7.8-1.0l-26.2-11.6c-.5-.2-1.1.0-1.3.5l-1.6 4.0s-4.3 2.0-7.1 2.0c-2.7 0-6.1-1.7-6.1-1.7z"/>
      <path fill="rgb(228,228,228)" d="M183.4 223.3c-1.0-.5-2.3-.0-2.7 1.0 0 0-1.6 4.0-1.6 6.7C179 233.8 179.9 239 179.9 239h56.4s2.1-7.2-2.5-7.8c-4.7-.5-7.8-1.0-7.8-1.0l-26.2-11.6c-.5-.2-1.1.0-1.3.5l-1.6 4.0s-4.3 2.0-7.1 2.0c-2.7 0-6.1-1.7-6.1-1.7z"/>
      <path fill="rgb(105,161,172)" d="M123 0l16 62.6h48.8L180.5 0H123z"/>
      <path fill="rgb(137,197,204)" d="M114 0c-7.8 23.6-3 62.6-3 62.6h49.8L174.5 0H114z"/>
    </g>
    <g transform="translate(22 82)">
      <path fill="rgb(178,139,103)" d="M194.0 89.1l28.3 27.6c8.2 3.5 14.9 7.3 20.2 11.6 1.1 1.4 2.4 4.1-3.0 2.9-5.5-1.2-11.4-2.2-12.5-.4-.4.7-.1 1.7.2 2.8.4 1.3.9 2.8-.1 4.1-1.2 1.5-5.6-3.4-13.0-15.0l-29.4-17.3 9.4-16.2zM36.0 173.6c7.3-5.0 17.9-13.8 19.3-16.7C58.3 150.9 68.3 93.0 68.3 93.0l20.8.0s-19.3 62.4-20.8 66.3c-2.0 4.9 1.4 12.1 3.7 17.0.3.7.6 1.4.9 2.0-3.2 1.4-4.7-.2-6.3-2.1-1.8-2.0-3.7-4.2-8.3-2.1-1.7.8-3.4 1.7-5.0 2.7-5.6 3.2-10.8 6.2-17.8 1.9-1.1-.6-2.3-3.2.6-5.3z"/>
      <path fill="rgb(25,24,71)" d="M127.6 5.3l8.6-1.4c14.8 37.1 40.8 70.9 77.9 101.3l-28.0 34.0c-37.0-43.2-59.9-87.9-58.5-133.9z"/>
      <path fill="rgb(221,227,233)" d="M90 114h77S140.2 48.9 140.2 3.4L117.0 0C98.7 29.3 93.6 65.5 90 114z"/>
      <path fill="rgb(47,54,118)" d="M55 147C63.4 51.9 116.5 0 116.5 0l.0.0C116.5.0 116.5.0 116.5 0h1.5c2.7.0 8.2.3 8.2.3l5.6 16.0c.8 29.3 10.4 118.2 10.4 118.2H91.9c.0 4.0.2 8.2.5 12.3H55z"/>
      <path fill="rgb(0,0,0)" fill-opacity=".1" d="M91.9 135c-.4-17.7 1.1-34.4 3.7-49.4C97.1 103.3 100.0 124.9 106 135H91.9z"/>
      <path fill="rgb(255,255,255)" fill-opacity=".2" d="M103.1 104L128 92.4V104h-24.8z"/>
    </g>
  </g>
</svg>
