<svg xmlns="http://www.w3.org/2000/svg" width="348.9" height="442.0" viewBox="0 0 348.9 442.0">
  <g transform="rotate(-10.0 174.4 221.0)">
    <g transform="translate(108.5 21.6)">
      <path fill="rgb(178,139,103)" d="M88.2 36.2c5.7 10.8 5.1 38.1-2.3 40.1-2.9.7-9.3-1.1-15.8-5.0l4.0 28.7h-24l8.2-38.5c-4.6-5.4-7.7-12.0-7.2-19.4 1.5-21.4 31.2-16.6 37.0-5.8z"/>
      <path fill="rgb(25,24,71)" d="M74.4 26.0c-3.0-.4-11.0-.8-12.5-.8-.9 0-1.9.2-2.5-.6-.4-.7-.2-1.9-.4-2.7-.1-.9-.3-1.9-.6-2.8-.6-2.6-1.6-5.2-3.0-7.6-2.5-4.5-6.4-8.0-11.2-10.0-5.3-2.2-11.3-2.7-17.0-2.3-6.1.4-11.6 2.4-17.3 4.3C4.1 5.1-1.6 5.8-7.3 4.9c-5.7-.8-10.1-4.0-15.0-6.9-4.9-3.0-10.7-5.0-16.6-4.5-5.5.4-10.6 2.6-15.1 5.7-4.2 2.8-7.7 6.2-9.7 11.0-2.1 5.1-2.1 10.8 1.3 15.3 5.0 6.5 14.5 8.3 22.4 8.1 4.5-.0 9.0-.9 13.3-2.4 5.7-2.0 10.6-5.3 16.0-8.1 2.5-1.2 5.1-2.3 7.8-3.1 2.6-.7 5.2-1.0 7.6.5 2.5 1.6 4.8 3.3 7.7 4.3 2.7 1.0 5.7 1.5 8.6 1.5 5.7-.0 11.4-1.8 17.0-3.0 4.5-.9 9.4-1.9 14.1-1.0 1.9.3 4.7 1.1 5.4 3.2-11.8 2.1-16.4 16.6-13.1 27.2 1.7 5.7 12.6 12.4 16.8 9.4 2.6-1.9 1.0-4.4 0-6.0-2.0-3.1-2.6-7.2 1.0-9.4 3.1-1.9 6.5 2.6 6.6 2.6.8-.0 8.4-4.3 13.6-10.5 5.1.3 5.9-3.0 4.7-5.8-1.2-2.7-8.9-6.2-13.0-6.9z"/>
    </g>
    <g transform="translate(32.4 194.4)">
      <path fill="rgb(178,139,103)" d="M110.5-.0c1.6 23.2 111.5 91.7 112.1 93.7.4 1.2-34.2 81.1-34.2 81.1l9.6 3.7s53.1-84.5 50.4-93.5C244.5 72.0 163.2.1 163.2.1l-52.7-.2z"/>
      <path fill="rgb(47,54,118)" d="M190.9 162.7l15.6 5.7c33.0-37.3 46.0-68.1 43.7-83.8C248.0 68.9 165.4.0 165.4.0l-56.0.0c1.8 53.9 103.7 93.8 105.0 96.1 1.3 2.2-12.0 24.8-23.4 66.5z"/>
      <path fill="rgb(228,228,228)" d="M187.8 172.9c-.7-.8-2.1-.8-2.9.0 0 0-2.6 2.9-3.5 5.3-.8 2.4-1.7 7.3-1.7 7.3l50.1 18.2s4.3-5.7.2-7.7c-4.0-2.0-6.6-3.4-6.6-3.4l-19.5-18.8c-.4-.3-1.0-.3-1.4.0l-2.7 3.0s-4.5.3-7.0-.4c-2.4-.8-4.8-3.4-4.8-3.4z"/>
      <path fill="rgb(153,118,89)" d="M123.0 0L74.0 117.4 25.9 216.7h11.3L161.5 0h-38.5z"/>
      <path fill="rgb(228,228,228)" d="M27.9 211.2c-1.0-.5-2.3-.0-2.7 1.0 0 0-1.5 3.7-1.5 6.2 0 2.5.8 7.4.8 7.4h53.3s2.0-6.8-2.4-7.4c-4.4-.5-7.4-.9-7.4-.9l-24.7-11.0c-.5-.2-1.1.0-1.3.5l-1.5 3.8s-4.1 1.9-6.7 1.9c-2.5 0-5.6-1.5-5.6-1.5z"/>
      <path fill="rgb(92,99,171)" d="M30.2 196.1l25.2 4.7C75.0 172.2 156.7 54.7 165.6 0h-56.1C79.5 39.5 48.8 167.0 30.2 196.1z"/>
    </g>
    <g transform="translate(51.5 97.2)">
      <path fill="rgb(178,139,103)" d="M191 72.6l36.2-15.9q9.5-9.4 18.3-14.4c1.7-.5 4.7-.7 1.5 3.9-3.2 4.7-6.3 9.8-5.1 11.4.5.7 1.5.7 2.7.8 1.4.0 2.9.1 3.7 1.6q.0.1.0.3.1 2.5-18.9 6.0L202.5 87.4 191 72.6zM44.5 77L65 81.0q-30.9 57.6-33.1 61.0c-2.9 4.4-.9 12.2.3 17.4.2.8.3 1.5.5 2.2-3.4.7-4.5-1.1-5.8-3.2-1.4-2.3-2.8-4.8-7.7-3.6-1.8.4-3.7 1.1-5.4 1.7-6.1 2.1-11.7 4.1-17.8-1.5-.9-.8-1.6-3.6 1.6-5.0 8.1-3.5 20.2-10.1 22.2-12.7Q23.6 131.9 44.5 77z"/>
      <path fill="rgb(219,39,33)" d="M120.7 5.0l8.1-1.4c17.8 17.2 25.0 58.8 36.9 64.3 11.2 5.1 27.1.1 46.0-6.6l5.7 12.9c-17.1 18.6-53.7 34.3-68.5 25.3-23.7-14.3-29.1-65.5-28.3-94.6z"/>
      <path fill="rgb(221,227,233)" d="M85.0 107.9h72.3c3.3 0 2.6-4.7 2.2-7.1-5.5-27.8-27.0-57.8-27.0-97.4L111.7 0C94.4 27.7 88.4 62.0 85.0 107.9z"/>
      <path fill="rgb(255,65,51)" d="M20 136.8Q35.4 40.7 109.7-5h8.7s29.7 101.3 16.3 135H66c1.0-16.4 4.5-33.8 9.3-50.7Q51.9 121.4 36.0 140L20 136.8z"/>
    </g>
  </g>
</svg>
