<svg xmlns="http://www.w3.org/2000/svg" width="418.4" height="491.0" viewBox="0 0 418.4 491.0">
  <g transform="rotate(-160.0 209.2 245.5)">
    <g transform="translate(133.8 37.7)">
      <path fill="rgb(178,139,103)" d="M90.8 38.6c5.7 10.8 5.1 38.1-2.3 40.1-2.9.7-9.3-1.1-15.8-5.0l4.0 28.7h-24l8.2-38.5c-4.6-5.4-7.7-12.0-7.2-19.4 1.5-21.4 31.2-16.6 37.0-5.8z"/>
      <path fill="rgb(25,24,71)" d="M92.7 44.0c-.2-1.3-.8-2.8-1.2-4.1-.5-1.6-1.4-3.1-2.4-4.5-1.8-2.6-4.0-5.0-6.5-7.0-4.5-3.6-10.2-5.7-15.8-5.0-2.8.3-5.6 1.4-7.9 3.2-2.1 1.6-4.1 4.0-6.9 4.1-2.9.1-5.7-2.4-8.1-4.0-2.7-1.8-5.5-3.1-8.7-3.6-5.3-.8-10.2.9-13.9 5.2-3.8 4.6-6.7 11.3-4.1 17.4.4 1.1 1.0 2.0 1.9 2.8.8.7 2.0 1.5 2.3 2.6.3 1.2-.6 2.8-1.0 3.9-.5 1.5-1.0 3.2-.8 5.0.2 2.8 2.0 5.5 3.9 7.4 1.9 1.9 4.3 3.0 6.8 3.5 1.6.3 3.4.5 5.1.3.8-.0 1.6-.2 2.4-.4.8-.1 1.2.0 1.9.4 3.1 2.0 6.5 2.8 10.2 2.5 3.0-.2 6.6-1.0 9.1-3.1 2.8-2.3 2.7-5.5 2.0-9.0.6.3 2.6.5 1.4-.8-.4-.5-1.3-.7-1.9-1.0-.6-.3-1.3-.8-1.9-1.4-2.1-2.4.0-7.4 2.7-8.2 4.0-1.2 4.9 4.4 7.7 5.8 1.6.8 3.3-.3 4.5-1.4 1.6-1.5 2.7-3.6 3.7-5.7.8-1.7 1.5-3.5 2.3-5.2.3-.8 1.6-3.1 1.0-4.0 2.8-.5 6.0.6 8.5 2.1 1.0.6 1.8 1.3 2.3 2.4.1.2.3.9.6.9.5.0.3-.6.3-1.0"/>
    </g>
    <g transform="translate(62.1 218.5)">
      <path fill="rgb(31,40,207)" d="M125.4 0l47.1 124.9 33.0 92.0h18.8L179.1 0h-53.6z"/>
      <path fill="rgb(43,68,255)" d="M113.8 0c-.5 42.8-.1 100.5-1.3 103.2-1.1 2.6-74.2 60.8-74.2 60.8l9.7 16.5s86.7-56.0 91.1-63.5C143.5 109.7 165.8 41.0 177.4 0h-63.6z"/>
      <path fill="rgb(25,24,71)" d="M21.1 175.3l16.4-12.5 13.2 15.7c1.5 17.8 11.7 40.0 11.7 40.0l-3.0 2.5-23.9-28.5-6.6-11.0-1.5 1.2-6.3-7.5z"/>
      <path fill="rgb(25,24,71)" d="M203.9 234.7l.9-20.6h20.5c14.6 10.3 38.2 16.6 38.2 16.6v3.9h-37.2l-12.7-1.9v1.9h-9.8z"/>
    </g>
    <g transform="translate(81.9 117.6)">
      <path fill="rgb(178,139,103)" d="M-.6 149.7c8.1-3.6 20.0-10.5 22.0-13.1 3.9-5.3 27.5-62.8 27.5-62.8l17.6 3.1s-30.6 60.8-32.8 64.3c-2.8 4.5-.7 12.2.6 17.4.2.8.4 1.5.5 2.2-3.4.8-4.6-1.1-5.8-3.1-1.4-2.3-2.9-4.8-7.8-3.5-1.8.5-3.6 1.1-5.4 1.8-6.1 2.2-11.7 4.3-17.9-1.1-.9-.8-1.7-3.6 1.5-5.1zM193.2 83.5l31.8 23.4c8.6 2.3 15.8 5.2 21.6 8.7 1.3 1.2 3.0 3.7-2.6 3.3-5.6-.4-11.6-.6-12.4 1.2-.3.8.1 1.7.6 2.7.6 1.2 1.3 2.6.4 4.1-1.0 1.7-6.0-2.6-14.9-13.1l-31.5-13.0 7.0-17.4z"/>
      <path fill="rgb(105,161,172)" d="M135.5.4l-10.6 4.3c.1 2.7.1 6.7.0 11.3-.0 14.2-.0 34.2 3.5 41.3 14.5 27.8 46.3 40.6 80.1 57.4l8.0-16.4c-.9-.6-1.8-1.3-2.7-1.9 1.2-.4 2.3-1.4 2.7-2.8.7-2.3-.4-4.9-2.8-5.7-4.7-1.6-9.2-2.2-13.3-1.9C170.6 60.8 150.4 31.2 135.5.4z"/>
      <path fill="rgb(25,24,71)" d="M88.1 111.9s46.1 5.0 72.6 0c2.1-.4 2.0-9.8 1.0-12.4-15.8-40.3-26.2-69.8-26.2-97.8-4.3 2.2-15.2.6-15.2.6-19.4 28.8-28.4 61.9-32.3 109.6z"/>
      <path fill="rgb(137,197,204)" d="M112.2-1.5h5.4l5.9 2.3e-7c-1.2 17.0 4.7 41.8 11.7 70.5 11.2 45.9 24.9 102.1 15.0 152.9-12.1 2.7-26.4.8-41.8-1.1-22.3-2.8-47.0-6.1-71.4 3.6 1.5-33.2 32.2-72.3 44.2-107.2-1.0-1.0-1.6-2.5-1.3-4.0l.5-2.9c.3-2.0 1.9-3.4 3.8-3.6.3-1.5.6-2.9.8-4.4 1.2-7.5.4-15.0-.3-22.4-.4-4.0-.8-8.0-.9-12.0-13.3 11.9-29.6 32.7-43.2 68.7l-18.8-5.5c.7-2.6 1.4-5.3 2.2-7.9-2.1-1.2-4.7-6.9-2.9-7.8 1.9-1.0 4.0-1.7 6.1-2.1C55.2 33.3 112.2-1.5 112.2-1.5z"/>
      <path fill="rgb(0,0,0)" fill-opacity=".1" d="M116.6.9l-5.0 15.5 10.1 11.6-9.1 9.1 22.2 38.2-27.1-38.1 9.0-9.2-9.0-10.3L116.6.9z"/>
      <path fill="rgb(0,0,0)" fill-opacity=".4" d="M124.3 86.4c0-2.2 1.7-4 4.0-4 2.2 0 4 1.7 4 4s-1.7 4-4 4c-2.2 0-4.0-1.7-4.0-4zm4.9 23c0-2.2 1.7-4 4-4s4 1.7 4 4-1.7 4-4 4-4-1.7-4-4zm1 23c0-2.2 1.7-4 4-4s4 1.7 4 4-1.7 4-4 4-4-1.7-4-4z"/>
    </g>
  </g>
</svg>
